<svg width="402" height="874" viewBox="0 0 402 874" fill="none" xmlns="http://www.w3.org/2000/svg">
<mask id="mask0_5_13" style="mask-type:alpha" maskUnits="userSpaceOnUse" x="0" y="0" width="402" height="874">
<rect width="402" height="874" rx="30" fill="white"/>
</mask>
<g mask="url(#mask0_5_13)">
<path fill-rule="evenodd" clip-rule="evenodd" d="M316 374.78L323.3 371.414C330.6 368.048 345.2 361.317 359.8 368.048C374.4 374.78 389 394.975 403.6 415.17C418.2 435.365 432.8 455.56 447.4 438.731C462 421.902 476.6 368.048 491.2 344.487C505.8 320.927 520.4 327.658 527.7 331.024L535 334.39V294H527.7C520.4 294 505.8 294 491.2 294C476.6 294 462 294 447.4 294C432.8 294 418.2 294 403.6 294C389 294 374.4 294 359.8 294C345.2 294 330.6 294 323.3 294H316V374.78Z" fill="#A7C957"/>
<path fill-rule="evenodd" clip-rule="evenodd" d="M-69 415.448L-34.0846 437.007C2.41791 458.565 72.2487 501.683 143.667 480.124C215.085 458.565 284.915 372.33 356.333 361.551C427.751 350.772 497.582 415.448 534.085 447.786L569 480.124V22H534.085C497.582 22 427.751 22 356.333 22C284.915 22 215.085 22 143.667 22C72.2487 22 2.41791 22 -34.0846 22H-69V415.448Z" fill="#A7C957"/>
<path fill-rule="evenodd" clip-rule="evenodd" d="M313 341.78L320.3 338.414C327.6 335.048 342.2 328.317 356.8 335.048C371.4 341.78 386 361.975 400.6 382.17C415.2 402.365 429.8 422.56 444.4 405.731C459 388.902 473.6 335.048 488.2 311.487C502.8 287.927 517.4 294.658 524.7 298.024L532 301.39V261H524.7C517.4 261 502.8 261 488.2 261C473.6 261 459 261 444.4 261C429.8 261 415.2 261 400.6 261C386 261 371.4 261 356.8 261C342.2 261 327.6 261 320.3 261H313V341.78Z" fill="#6A994E"/>
<path fill-rule="evenodd" clip-rule="evenodd" d="M-72 382.448L-37.0846 404.007C-0.582092 425.566 69.2488 468.683 140.667 447.124C212.085 425.566 281.915 339.33 353.333 328.551C424.751 317.772 494.582 382.448 531.085 414.786L566 447.124V-11H531.085C494.582 -11 424.751 -11 353.333 -11C281.915 -11 212.085 -11 140.667 -11C69.2488 -11 -0.582092 -11 -37.0846 -11H-72V382.448Z" fill="#6A994E"/>
</g>
</svg>
