<svg width="227" height="344" viewBox="0 0 227 344" fill="none" xmlns="http://www.w3.org/2000/svg">
<path fill-rule="evenodd" clip-rule="evenodd" d="M0.669441 -33.558L17.0122 1.82835C33.3549 37.2147 66.0403 107.987 144.718 128.15C223.396 148.312 348.067 117.863 436.966 126.779C525.864 135.694 578.991 183.973 637.228 226.629C695.465 269.285 758.812 306.317 790.485 324.833L822.159 343.35V343.35L795.596 319.21C769.032 295.071 715.906 246.791 662.779 198.512C609.653 150.233 556.526 101.954 503.399 53.6749C450.273 5.39572 397.146 -42.8834 344.02 -91.1626C290.893 -139.442 237.767 -187.721 211.203 -211.86L184.64 -236L0.669441 -33.558Z" fill="#A7C957"/>
</svg>
