<svg width="140" height="666" viewBox="0 0 140 666" fill="none" xmlns="http://www.w3.org/2000/svg">
<path fill-rule="evenodd" clip-rule="evenodd" d="M30.8719 -8.20072L26.1574 19.5833C21.4429 47.3673 12.0138 102.935 26.7003 157.942C41.3867 212.948 80.1886 267.392 100.234 322.273C120.279 377.155 121.568 432.473 125.537 487.729C129.505 542.985 136.153 598.178 139.477 625.775L142.801 653.372V653.372L142.157 625.712C141.512 598.053 140.223 542.735 138.934 487.417C137.645 432.098 136.356 376.78 135.067 321.462C133.779 266.143 132.49 210.825 131.201 155.507C129.912 100.188 128.623 44.87 127.978 17.2108L127.334 -10.4483L30.8719 -8.20072Z" fill="#A7C957"/>
<path fill-rule="evenodd" clip-rule="evenodd" d="M141.012 627.42L124.667 606.152C108.322 584.884 75.6312 542.348 79.9555 487.313C84.2797 432.277 125.619 364.742 138.168 306.929C150.718 249.116 134.479 201.025 122.352 151.545C110.225 102.065 102.211 51.1955 98.204 25.761L94.1969 0.326489V0.326489L102.317 24.3722C110.437 48.4179 126.676 96.5093 142.916 144.601C159.155 192.692 175.395 240.784 191.634 288.875C207.874 336.966 224.113 385.058 240.353 433.149C256.593 481.241 272.832 529.332 280.952 553.378L289.072 577.424L141.012 627.42Z" fill="#A7C957"/>
<path fill-rule="evenodd" clip-rule="evenodd" d="M48.5119 -8L43.1515 19.6667C37.7911 47.3333 27.0702 102.667 40.4713 158C53.8724 213.333 91.3955 268.667 110.157 324C128.919 379.333 128.919 434.667 131.599 490C134.279 545.333 139.64 600.667 142.32 628.333L145 656V656V628.333C145 600.667 145 545.333 145 490C145 434.667 145 379.333 145 324C145 268.667 145 213.333 145 158C145 102.667 145 47.3333 145 19.6667V-8L48.5119 -8Z" fill="#6A994E"/>
<path fill-rule="evenodd" clip-rule="evenodd" d="M143.816 630.014L127.971 608.371C112.125 586.728 80.4345 543.442 86.0396 488.522C91.6447 433.602 134.546 367.049 148.439 309.544C162.332 252.039 147.217 203.582 136.246 153.833C125.275 104.084 118.448 53.0419 115.035 27.521L111.621 2.00001V2.00001L119.179 26.2283C126.736 50.4567 141.851 98.9133 156.966 147.37C172.081 195.827 187.196 244.283 202.311 292.74C217.425 341.197 232.54 389.653 247.655 438.11C262.77 486.567 277.885 535.023 285.443 559.252L293 583.48L143.816 630.014Z" fill="#6A994E"/>
</svg>
