<svg width="114" height="874" viewBox="0 0 114 874" fill="none" xmlns="http://www.w3.org/2000/svg">
<path fill-rule="evenodd" clip-rule="evenodd" d="M99.4878 415L104.848 387.333C110.209 359.667 120.93 304.333 107.528 249C94.1273 193.667 56.6042 138.333 37.8426 83.0001C19.0811 27.6668 19.0811 -27.6665 16.4008 -82.9999C13.7206 -138.333 8.36017 -193.667 5.67995 -221.333L2.99973 -249V-249V-221.333C2.99973 -193.667 2.99973 -138.333 2.99973 -82.9999C2.99973 -27.6665 2.99973 27.6668 2.99973 83.0001C2.99973 138.333 2.99973 193.667 2.99973 249C2.99973 304.333 2.99973 359.667 2.99973 387.333V415H99.4878Z" fill="#A7C957"/>
<path fill-rule="evenodd" clip-rule="evenodd" d="M70.3394 236.5L82.1618 262.918C93.9841 289.336 129.5 281.5 104 400.5C89.6848 458.018 14.0001 612.5 -27.9999 637C-88.9999 729.5 -78.5558 606.246 -76 661.683C-87.0509 654.485 -30.169 675.204 -30.9999 703.183L-0.217096 914.234L-25 828.683C-28.3868 801.225 -13.7642 804.4 -20.5378 749.483C-27.3114 694.565 -34.085 639.648 -40.8585 584.731C-47.6321 529.814 -54.4057 474.897 -61.1793 419.98C-67.9528 365.062 -74.7264 310.145 -78.1132 282.687L-81.5 255.228L70.3394 236.5Z" fill="#A7C957"/>
<path fill-rule="evenodd" clip-rule="evenodd" d="M87 418L93.8485 387.333C99.2089 359.667 109.93 304.333 96.5287 249C83.1276 193.667 45.6045 138.333 26.8429 83C8.08134 27.6667 8.08134 -27.6667 5.40112 -83C2.72089 -138.333 -2.63955 -193.667 -5.31978 -221.333L-8 -249V-221.333C-8 -193.667 -8 -138.333 -8 -83C-8 -27.6667 -8 27.6667 -8 83C-8 138.333 -8 193.667 -8 249C-8 304.333 -8 359.667 -8 387.333V415L87 418Z" fill="#6A994E"/>
<path fill-rule="evenodd" clip-rule="evenodd" d="M84.3573 233.002L89.7661 260.668C95.1748 288.335 105.992 343.668 92.4704 399.002C78.9486 454.335 41.0874 509.668 22.1568 565.002C-41 700 -42.5 627 -74.5 667.5C-106.5 708 -7.59126 841.668 -10.2956 869.335L-13 897.002V869.335C-13 841.668 -13 786.335 -13 731.002C-13 675.668 -13 620.335 -13 565.002C-13 509.668 -13 454.335 -13 399.002C-13 343.668 -13 288.335 -13 260.668V233.002H84.3573Z" fill="#6A994E"/>
</svg>
