<svg width="144" height="716" viewBox="0 0 144 716" fill="none" xmlns="http://www.w3.org/2000/svg">
<path fill-rule="evenodd" clip-rule="evenodd" d="M42.4195 -11.7558L36.4985 14.9401C30.5774 41.6359 18.7352 95.0276 31.5535 148.825C44.3718 202.623 81.8506 256.827 100.149 310.714C118.447 364.602 117.565 418.174 119.424 471.792C121.282 525.409 125.88 579.071 128.179 605.902L130.478 632.734V632.734L130.919 605.947C131.36 579.161 132.242 525.589 133.124 472.017C134.006 418.445 134.888 364.873 135.77 311.301C136.652 257.729 137.534 204.157 138.416 150.585C139.298 97.0124 140.18 43.4403 140.621 16.6543L141.062 -10.1318L42.4195 -11.7558Z" fill="#A7C957"/>
<path fill-rule="evenodd" clip-rule="evenodd" d="M129.405 628.002L113.918 606.101C98.4308 584.2 67.4567 540.398 73.9651 485.578C80.4734 430.758 124.464 364.92 139.302 307.651C154.14 250.383 139.824 201.684 129.674 151.761C119.523 101.838 113.538 50.6902 110.545 25.1165L107.552 -0.457159V-0.457159L114.709 23.8923C121.867 48.2418 136.182 96.9407 150.497 145.64C164.813 194.338 179.128 243.037 193.443 291.736C207.758 340.435 222.073 389.134 236.389 437.833C250.704 486.532 265.019 535.231 272.177 559.58L279.334 583.93L129.405 628.002Z" fill="#A7C957"/>
<path fill-rule="evenodd" clip-rule="evenodd" d="M148.437 658.103L132.48 635.849C116.523 613.594 84.6093 569.085 91.6937 513.112C98.7781 457.14 144.861 389.703 160.611 331.183C176.362 272.663 161.781 223.059 151.533 172.181C141.285 121.303 135.37 69.1516 132.412 43.0758L129.455 17V17L136.745 41.802C144.036 66.6041 158.617 116.208 173.198 165.812C187.78 215.416 202.361 265.02 216.942 314.624C231.523 364.228 246.105 413.832 260.686 463.437C275.267 513.041 289.849 562.645 297.139 587.447L304.43 612.249L148.437 658.103Z" fill="#A7C957"/>
<path fill-rule="evenodd" clip-rule="evenodd" d="M56.0033 -8.20636L50.3552 19.403C44.7072 47.0124 33.4111 102.231 46.2357 157.701C59.0604 213.171 96.0057 268.892 114.19 324.417C132.375 379.943 131.799 435.273 133.904 490.631C136.008 545.989 140.792 601.376 143.185 629.069L145.577 656.762V656.762L145.865 629.097C146.153 601.431 146.728 546.101 147.304 490.771C147.88 435.44 148.456 380.11 149.031 324.78C149.607 269.449 150.183 214.119 150.759 158.789C151.335 103.458 151.91 48.128 152.198 20.4628L152.486 -7.20235L56.0033 -8.20636Z" fill="#6A994E"/>
<path fill-rule="evenodd" clip-rule="evenodd" d="M144.664 630.765L129.044 608.958C113.425 587.151 82.1861 543.538 88.3623 488.679C94.5386 433.821 138.13 367.718 152.62 310.36C167.111 253.003 152.501 204.392 142.049 154.531C131.596 104.67 125.3 53.56 122.153 28.0049L119.005 2.44978V2.44978L126.31 26.7554C133.615 51.0611 148.225 99.6724 162.835 148.284C177.445 196.895 192.054 245.506 206.664 294.118C221.274 342.729 235.884 391.34 250.494 439.952C265.104 488.563 279.714 537.174 287.018 561.48L294.323 585.786L144.664 630.765Z" fill="#6A994E"/>
</svg>
