<svg width="114" height="874" viewBox="0 0 114 874" fill="none" xmlns="http://www.w3.org/2000/svg">
<path fill-rule="evenodd" clip-rule="evenodd" d="M99.4881 415L104.848 387.333C110.209 359.667 120.93 304.333 107.529 249C94.1276 193.667 56.6045 138.333 37.8429 83.0001C19.0813 27.6668 19.0813 -27.6665 16.4011 -82.9999C13.7209 -138.333 8.36045 -193.667 5.68022 -221.333L3 -249V-249V-221.333C3 -193.667 3 -138.333 3 -82.9999C3 -27.6665 3 27.6668 3 83.0001C3 138.333 3 193.667 3 249C3 304.333 3 359.667 3 387.333V415H99.4881Z" fill="#A7C957"/>
<path fill-rule="evenodd" clip-rule="evenodd" d="M75.8394 231.817L87.6618 258.235C99.4841 284.653 123.129 337.489 108.813 395.008C94.4982 452.526 28 663 -28 545C-84 595.5 -57.0558 570.563 -54.5 626C-65.551 618.802 -24.669 670.521 -25.4999 698.5L5.2829 909.551L-19.5 824C-22.8868 796.541 -8.26425 799.717 -15.0378 744.799C-21.8114 689.882 -28.585 634.965 -35.3586 580.048C-42.1321 525.131 -48.9057 470.214 -55.6793 415.296C-62.4528 360.379 -69.2264 305.462 -72.6132 278.003L-76 250.545L75.8394 231.817Z" fill="#A7C957"/>
<path fill-rule="evenodd" clip-rule="evenodd" d="M85.7095 219.168L91.1182 246.835C96.527 274.502 111.022 333.167 97.5 388.5C83.9781 443.833 63 493 40 546C10 601.5 -44.5 547.5 -17 560.5C-49.5 534 -67.7956 555.333 -70.5 583L-52 599.5L-30 601.5C-30 573.833 -21.5 570.5 -21.5 588.5C-21.5 533.167 -11.6478 570 -11.6478 551.168C-11.6478 495.835 -11.6478 440.502 -11.6478 385.168C-11.6478 329.835 -11.6478 274.502 -11.6478 246.835V219.168H85.7095Z" fill="#6A994E"/>
<path fill-rule="evenodd" clip-rule="evenodd" d="M88.4881 415L93.8485 387.333C99.2089 359.667 109.93 304.333 96.5287 249C83.1276 193.667 45.6045 138.333 26.8429 83C8.08134 27.6667 8.08134 -27.6667 5.40112 -83C2.7209 -138.333 -2.63955 -193.667 -5.31978 -221.333L-8 -249V-249V-221.333C-8 -193.667 -8 -138.333 -8 -83C-8 -27.6667 -8 27.6667 -8 83C-8 138.333 -8 193.667 -8 249C-8 304.333 -8 359.667 -8 387.333V415H88.4881Z" fill="#6A994E"/>
</svg>
