<svg width="122" height="874" viewBox="0 0 122 874" fill="none" xmlns="http://www.w3.org/2000/svg">
<path fill-rule="evenodd" clip-rule="evenodd" d="M107.488 446L112.848 418.333C118.209 390.667 128.93 335.333 115.529 280C102.128 224.667 64.6045 169.333 45.8429 114C27.0813 58.6667 27.0813 3.33333 24.4011 -52C21.7209 -107.333 16.3604 -162.667 13.6802 -190.333L11 -218V-218V-190.333C11 -162.667 11 -107.333 11 -52C11 3.33333 11 58.6667 11 114C11 169.333 11 224.667 11 280C11 335.333 11 390.667 11 418.333V446H107.488Z" fill="#A7C957"/>
<path fill-rule="evenodd" clip-rule="evenodd" d="M94.9901 281L103.49 308.667C111.989 336.333 128.988 391.667 107.739 447C86.4906 502.333 26.9945 557.667 -2.75359 613C-32.5017 668.333 -32.5017 723.667 -36.7514 779C-41.0011 834.333 -49.5006 889.667 -53.7503 917.333L-58 945V945V917.333C-58 889.667 -58 834.333 -58 779C-58 723.667 -58 668.333 -58 613C-58 557.667 -58 502.333 -58 447C-58 391.667 -58 336.333 -58 308.667V281H94.9901Z" fill="#A7C957"/>
<path fill-rule="evenodd" clip-rule="evenodd" d="M96.4881 446L101.848 418.333C107.209 390.667 117.93 335.333 104.529 280C91.1276 224.667 53.6045 169.333 34.8429 114C16.0813 58.6665 16.0813 3.3332 13.4011 -52.0001C10.7209 -107.333 5.36045 -162.667 2.68022 -190.333L8.13702e-07 -218V-218V-190.333C8.13702e-07 -162.667 8.13702e-07 -107.333 8.13702e-07 -52.0001C8.13702e-07 3.3332 8.13702e-07 58.6665 8.13702e-07 114C8.13702e-07 169.333 8.13702e-07 224.667 8.13702e-07 280C8.13702e-07 335.333 8.13702e-07 390.667 8.13702e-07 418.333V446H96.4881Z" fill="#6A994E"/>
<path fill-rule="evenodd" clip-rule="evenodd" d="M83.9901 281L92.4895 308.667C100.989 336.333 117.988 391.667 96.7392 447C75.4906 502.333 15.9945 557.667 -13.7536 613C-43.5017 668.333 -43.5017 723.667 -47.7514 779C-52.0011 834.333 -60.5006 889.667 -64.7503 917.333L-69 945V945V917.333C-69 889.667 -69 834.333 -69 779C-69 723.667 -69 668.333 -69 613C-69 557.667 -69 502.333 -69 447C-69 391.667 -69 336.333 -69 308.667V281H83.9901Z" fill="#6A994E"/>
</svg>
