<svg width="214" height="468" viewBox="0 0 214 468" fill="none" xmlns="http://www.w3.org/2000/svg">
<path fill-rule="evenodd" clip-rule="evenodd" d="M204.647 -9.77771L189.374 15.5871C174.1 40.9518 143.553 91.6814 87.2827 114.105C31.0125 136.529 -50.9805 130.648 -112.967 146.782C-174.953 162.915 -216.933 201.065 -261.771 236.069C-306.608 271.073 -354.304 302.932 -378.152 318.862L-402 334.792V334.792L-381.01 315.717C-360.02 296.642 -318.041 258.493 -276.061 220.344C-234.081 182.194 -192.102 144.045 -150.122 105.896C-108.142 67.7465 -66.1628 29.5972 -24.1831 -8.55214C17.7965 -46.7014 59.7762 -84.8507 80.766 -103.925L101.756 -123L204.647 -9.77771Z" fill="#A7C957"/>
<path fill-rule="evenodd" clip-rule="evenodd" d="M188.294 -13.7777L173.535 11.1193C158.776 36.0163 129.258 85.8103 74.0173 107.299C18.7767 128.787 -62.1869 121.97 -123.144 137.168C-184.101 152.366 -225.051 189.58 -268.859 223.649C-312.667 257.718 -359.334 288.641 -382.667 304.103L-406 319.565V319.565L-385.525 300.958C-365.05 282.351 -324.1 245.137 -283.149 207.924C-242.199 170.71 -201.249 133.496 -160.299 96.2824C-119.349 59.0686 -78.3987 21.8549 -37.4485 -15.3588C3.50165 -52.5726 44.4518 -89.7863 64.9269 -108.393L85.402 -127L188.294 -13.7777Z" fill="#6A994E"/>
</svg>
