<svg width="214" height="468" viewBox="0 0 214 468" fill="none" xmlns="http://www.w3.org/2000/svg">
<path fill-rule="evenodd" clip-rule="evenodd" d="M197.648 -7.00443L182.374 18.3604C167.1 43.7251 136.553 94.4547 80.2828 116.879C24.0127 139.303 -57.9804 133.421 -119.967 149.555C-181.953 165.689 -223.933 203.838 -268.77 238.842C-313.608 273.846 -361.304 305.706 -385.152 321.635L-409 337.565V337.565L-388.01 318.49C-367.02 299.416 -325.041 261.266 -283.061 223.117C-241.081 184.968 -199.102 146.818 -157.122 108.669C-115.142 70.5197 -73.1627 32.3704 -31.183 -5.77885C10.7967 -43.9282 52.7763 -82.0774 73.7662 -101.152L94.756 -120.227L197.648 -7.00443Z" fill="#6A994E"/>
<path fill-rule="evenodd" clip-rule="evenodd" d="M172.294 1.22238L157.535 26.1194C142.776 51.0164 113.258 100.81 58.0177 122.299C2.77703 143.787 -78.1865 136.97 -139.143 152.168C-200.1 167.367 -241.05 204.58 -284.859 238.649C-328.667 272.718 -375.333 303.641 -398.666 319.103L-422 334.565V334.565L-401.525 315.958C-381.049 297.351 -340.099 260.137 -299.149 222.924C-258.199 185.71 -217.249 148.496 -176.299 111.282C-135.348 74.0687 -94.3983 36.855 -53.4481 -0.358738C-12.498 -37.5725 28.4522 -74.7862 48.9273 -93.3931L69.4023 -112L172.294 1.22238Z" fill="#A7C957"/>
</svg>
